<svg xmlns="http://www.w3.org/2000/svg" xmlns:svg="http://www.w3.org/2000/svg" xmlns:xsi="http://www.w3.org/2001/XMLSchema-instance" id="Layer_1" width="800" height="800" x="0" y="0" version="1.1" viewBox="0 0 100.4 100.4" xml:space="preserve" xsi:schemaLocation="http://sodipodi.sourceforge.net/DTD/sodipodi-0.dtd"><metadata id="metadata9">rdf:about=&quot;&quot;&gt;</metadata><g id="g847" transform="matrix(0.26167923,0,0,0.26167923,-16.789883,-16.789883)"><path style="color:#000;font-style:normal;font-variant:normal;font-weight:400;font-stretch:normal;font-size:medium;line-height:normal;font-family:sans-serif;font-variant-ligatures:normal;font-variant-position:normal;font-variant-caps:normal;font-variant-numeric:normal;font-variant-alternates:normal;font-feature-settings:normal;text-indent:0;text-align:start;text-decoration:none;text-decoration-line:none;text-decoration-style:solid;text-decoration-color:#000;letter-spacing:normal;word-spacing:normal;text-transform:none;writing-mode:lr-tb;direction:ltr;text-orientation:mixed;dominant-baseline:auto;baseline-shift:baseline;text-anchor:start;white-space:normal;shape-padding:0;clip-rule:nonzero;display:inline;overflow:visible;visibility:visible;opacity:1;isolation:auto;mix-blend-mode:normal;color-interpolation:sRGB;color-interpolation-filters:linearRGB;solid-color:#000;solid-opacity:1;vector-effect:none;fill:#000;fill-opacity:1;fill-rule:nonzero;stroke:none;stroke-width:32px;stroke-linecap:round;stroke-linejoin:round;stroke-miterlimit:4;stroke-dasharray:none;stroke-dashoffset:0;stroke-opacity:1;color-rendering:auto;image-rendering:auto;shape-rendering:auto;text-rendering:auto;enable-background:accumulate" id="circle831" d="m 157.10938,96 c -23.29717,0 -45.01599,12.50214 -54.03516,33.54688 l -37.781251,88.15039 a 16.0016,16.0016 0 0 0 -0.126953,0.33007 16.0016,16.0016 0 0 0 -0.146485,0.38086 A 16.0016,16.0016 0 0 0 64,225.79883 V 368 400 a 16.0016,16.0016 0 0 0 16,16 h 32 a 16.0016,16.0016 0 0 0 16,-16 v -16 h 256 v 16 a 16.0016,16.0016 0 0 0 16,16 h 32 a 16.0016,16.0016 0 0 0 16,-16 V 368 225.71094 a 16.0016,16.0016 0 0 0 -1.26172,-7.9375 16.0016,16.0016 0 0 0 -0.002,-0.004 16.0016,16.0016 0 0 0 -0.002,-0.002 16.0016,16.0016 0 0 0 -0.0274,-0.0703 L 408.92578,129.54688 C 399.90661,108.50214 378.18779,96 354.89062,96 Z m 0,32 h 197.78124 c 11.72284,0 21.34222,6.49708 24.62305,14.15234 L 407.73438,208 H 104.26562 l 28.22071,-65.84766 C 135.76716,134.49708 145.38654,128 157.10938,128 Z M 96,240 h 320 v 112 h -13.38867 a 16.0016,16.0016 0 0 0 -5.18555,0 H 114.61133 a 16.0016,16.0016 0 0 0 -5.18555,0 H 96 Z m 48,16 c -17.4836,0 -32,14.5164 -32,32 0,17.4836 14.5164,32 32,32 17.4836,0 32,-14.5164 32,-32 0,-17.4836 -14.5164,-32 -32,-32 z m 224,0 c -17.4836,0 -32,14.5164 -32,32 0,17.4836 14.5164,32 32,32 17.4836,0 32,-14.5164 32,-32 0,-17.4836 -14.5164,-32 -32,-32 z"/></g></svg>